<svg width="29" height="32" viewBox="0 0 29 32" fill="none" xmlns="http://www.w3.org/2000/svg">
<path d="M14.7285 31.457C16.6719 31.457 18.498 31.0908 20.207 30.3584C21.916 29.626 23.415 28.6152 24.7041 27.3262C25.9932 26.0273 27.0039 24.5283 27.7363 22.8291C28.4688 21.1299 28.835 19.3037 28.835 17.3506C28.835 15.4072 28.4688 13.5859 27.7363 11.8867C27.0039 10.1777 25.9932 8.67871 24.7041 7.38965C23.415 6.09082 21.916 5.0752 20.207 4.34277C18.498 3.61035 16.6719 3.24414 14.7285 3.24414C12.7754 3.24414 10.9492 3.61035 9.25 4.34277C7.55078 5.0752 6.05176 6.09082 4.75293 7.38965C3.46387 8.67871 2.45312 10.1777 1.7207 11.8867C0.988281 13.5859 0.62207 15.4072 0.62207 17.3506C0.62207 19.3037 0.988281 21.1299 1.7207 22.8291C2.45312 24.5283 3.46387 26.0273 4.75293 27.3262C6.05176 28.6152 7.55078 29.626 9.25 30.3584C10.9492 31.0908 12.7754 31.457 14.7285 31.457ZM14.7285 28.542C13.1758 28.542 11.7256 28.2539 10.3779 27.6777C9.03027 27.0918 7.84375 26.2861 6.81836 25.2607C5.79297 24.2354 4.9873 23.0488 4.40137 21.7012C3.8252 20.3438 3.53711 18.8936 3.53711 17.3506C3.53711 15.8076 3.8252 14.3623 4.40137 13.0146C4.9873 11.6572 5.79297 10.4658 6.81836 9.44043C7.84375 8.41504 9.03027 7.61426 10.3779 7.03809C11.7256 6.46191 13.1758 6.17383 14.7285 6.17383C16.2715 6.17383 17.7168 6.46191 19.0645 7.03809C20.4219 7.61426 21.6133 8.41504 22.6387 9.44043C23.6641 10.4658 24.4648 11.6572 25.041 13.0146C25.6172 14.3623 25.9053 15.8076 25.9053 17.3506C25.9053 18.8936 25.6172 20.3438 25.041 21.7012C24.4648 23.0488 23.6641 24.2354 22.6387 25.2607C21.6133 26.2861 20.4219 27.0918 19.0645 27.6777C17.7168 28.2539 16.2715 28.542 14.7285 28.542ZM2.49707 7.02344C2.61426 7.02344 2.7168 7.00879 2.80469 6.97949C2.89258 6.9502 2.99023 6.89648 3.09766 6.81836L8.26855 3.02441C8.5127 2.83887 8.63477 2.61426 8.63477 2.35059C8.63477 2.03809 8.49805 1.75977 8.22461 1.51562C7.91211 1.25195 7.52148 1.05176 7.05273 0.915039C6.59375 0.77832 6.125 0.709961 5.64648 0.709961C4.86523 0.709961 4.14746 0.900391 3.49316 1.28125C2.84863 1.65234 2.33594 2.15527 1.95508 2.79004C1.57422 3.4248 1.38379 4.13281 1.38379 4.91406C1.38379 5.20703 1.4082 5.48535 1.45703 5.74902C1.50586 6.0127 1.56934 6.23242 1.64746 6.4082C1.72559 6.60352 1.83789 6.75488 1.98438 6.8623C2.14062 6.96973 2.31152 7.02344 2.49707 7.02344ZM26.96 7.02344C27.1455 7.02344 27.3115 6.96973 27.458 6.8623C27.6143 6.74512 27.7363 6.59375 27.8242 6.4082C27.9023 6.24219 27.9609 6.02734 28 5.76367C28.0488 5.49023 28.0732 5.20703 28.0732 4.91406C28.0732 4.13281 27.8828 3.4248 27.502 2.79004C27.1211 2.15527 26.6035 1.65234 25.9492 1.28125C25.3047 0.900391 24.5869 0.709961 23.7959 0.709961C23.3271 0.709961 22.8584 0.77832 22.3896 0.915039C21.9307 1.05176 21.5449 1.25195 21.2324 1.51562C20.9492 1.75977 20.8076 2.03809 20.8076 2.35059C20.8076 2.61426 20.9395 2.83887 21.2031 3.02441L26.3594 6.81836C26.4668 6.89648 26.5645 6.9502 26.6523 6.97949C26.7402 7.00879 26.8428 7.02344 26.96 7.02344ZM2.35059 31.208C2.59473 31.4619 2.89258 31.584 3.24414 31.5742C3.60547 31.5742 3.91309 31.4424 4.16699 31.1787L7.06738 28.3076L5.29492 26.5352L2.36523 29.4502C2.11133 29.6943 1.98438 29.9873 1.98438 30.3291C1.98438 30.6807 2.10645 30.9736 2.35059 31.208ZM27.0918 31.208C27.3359 30.9736 27.458 30.6807 27.458 30.3291C27.4678 29.9873 27.3457 29.6943 27.0918 29.4502L24.1621 26.5352L22.3896 28.3076L25.29 31.1787C25.5439 31.4424 25.8467 31.5742 26.1982 31.5742C26.5498 31.584 26.8477 31.4619 27.0918 31.208ZM8.3418 19.1523H14.7139C15.0361 19.1523 15.3047 19.0449 15.5195 18.8301C15.7441 18.6055 15.8564 18.3369 15.8564 18.0244V9.48438C15.8564 9.16211 15.7441 8.89355 15.5195 8.67871C15.3047 8.4541 15.0361 8.3418 14.7139 8.3418C14.3916 8.3418 14.123 8.4541 13.9082 8.67871C13.6934 8.89355 13.5859 9.16211 13.5859 9.48438V16.8818H8.3418C8.0293 16.8818 7.76074 16.9941 7.53613 17.2188C7.32129 17.4336 7.21387 17.7021 7.21387 18.0244C7.21387 18.3369 7.32129 18.6055 7.53613 18.8301C7.76074 19.0449 8.0293 19.1523 8.3418 19.1523Z" fill="#416802"/>
</svg>
