<svg width="25" height="33" viewBox="0 0 25 33" fill="none" xmlns="http://www.w3.org/2000/svg">
<path d="M11.7969 32.1455C13.7695 32.1455 15.5566 31.8281 17.1582 31.1934C18.7695 30.5586 20.1562 29.6553 21.3184 28.4834C22.4805 27.3115 23.374 25.9102 23.999 24.2793C24.624 22.6387 24.9365 20.8223 24.9365 18.8301C24.9365 16.623 24.6484 14.626 24.0723 12.8389C23.4961 11.0518 22.71 9.46484 21.7139 8.07812C20.7178 6.68164 19.5752 5.48047 18.2861 4.47461C17.0068 3.45898 15.6543 2.62402 14.2285 1.96973C12.8027 1.31543 11.3672 0.832031 9.92188 0.519531C8.47656 0.207031 7.10449 0.0507812 5.80566 0.0507812C5.04395 0.0507812 4.43848 0.1875 3.98926 0.460938C3.54004 0.734375 3.31543 1.13965 3.31543 1.67676C3.31543 1.8916 3.35938 2.10645 3.44727 2.32129C3.53516 2.52637 3.66211 2.72168 3.82812 2.90723C4.43359 3.62988 5 4.38184 5.52734 5.16309C6.05469 5.93457 6.48438 6.74512 6.81641 7.59473C7.1582 8.43457 7.3291 9.32324 7.3291 10.2607C7.3291 10.5439 7.30469 10.8223 7.25586 11.0957C7.20703 11.3594 7.08496 11.667 6.88965 12.0186L7.56348 11.8574C7.2998 11.0957 6.95801 10.4463 6.53809 9.90918C6.11816 9.37207 5.6543 8.96191 5.14648 8.67871C4.64844 8.39551 4.15039 8.25391 3.65234 8.25391C3.31055 8.25391 3.03223 8.36621 2.81738 8.59082C2.60254 8.81543 2.49512 9.11816 2.49512 9.49902C2.49512 9.72363 2.50977 10.0215 2.53906 10.3926C2.57812 10.7539 2.59766 11.1152 2.59766 11.4766C2.59766 12.1406 2.51465 12.7607 2.34863 13.3369C2.18262 13.9131 1.96777 14.4893 1.7041 15.0654C1.4502 15.6416 1.19629 16.2568 0.942383 16.9111C0.688477 17.5557 0.473633 18.293 0.297852 19.123C0.131836 19.9434 0.0488281 20.8906 0.0488281 21.9648C0.0488281 24.0059 0.537109 25.793 1.51367 27.3262C2.49023 28.8496 3.85742 30.0312 5.61523 30.8711C7.37305 31.7207 9.43359 32.1455 11.7969 32.1455ZM11.9434 29.6846C10.0684 29.6846 8.42285 29.3574 7.00684 28.7031C5.59082 28.0586 4.49219 27.1602 3.71094 26.0078C2.92969 24.8555 2.53906 23.5078 2.53906 21.9648C2.53906 21.0469 2.62207 20.2314 2.78809 19.5186C2.9541 18.8057 3.16406 18.1514 3.41797 17.5557C3.67188 16.96 3.9209 16.374 4.16504 15.7979C4.41895 15.2119 4.62891 14.5918 4.79492 13.9375C4.96094 13.2832 5.04395 12.541 5.04395 11.7109C5.04395 11.4473 5.01953 11.1982 4.9707 10.9639C4.93164 10.7295 4.88281 10.5098 4.82422 10.3047L4.37012 10.7734C4.74121 11.0566 5.07324 11.4033 5.36621 11.8135C5.66895 12.2236 5.92773 12.6924 6.14258 13.2197C6.35742 13.7373 6.53809 14.3184 6.68457 14.9629C6.72363 15.1582 6.79199 15.3096 6.88965 15.417C6.99707 15.5146 7.13379 15.5635 7.2998 15.5635C7.63184 15.5635 7.93457 15.3975 8.20801 15.0654C8.48145 14.7334 8.71582 14.3086 8.91113 13.791C9.11621 13.2637 9.27246 12.7021 9.37988 12.1064C9.4873 11.5107 9.54102 10.9492 9.54102 10.4219C9.54102 9.31836 9.38965 8.24414 9.08691 7.19922C8.79395 6.14453 8.36914 5.1582 7.8125 4.24023C7.26562 3.3125 6.61133 2.48242 5.84961 1.75L5.29297 2.39453C7.36328 2.45312 9.27734 2.76074 11.0352 3.31738C12.8027 3.87402 14.3799 4.64062 15.7666 5.61719C17.1631 6.59375 18.3496 7.75098 19.3262 9.08887C20.3125 10.4268 21.0645 11.9111 21.582 13.542C22.0996 15.1631 22.3584 16.9014 22.3584 18.7568C22.3584 20.9346 21.9238 22.8438 21.0547 24.4844C20.1855 26.1152 18.9697 27.3896 17.4072 28.3076C15.8447 29.2256 14.0234 29.6846 11.9434 29.6846ZM12.1484 27.6338C13.2812 27.6338 14.2236 27.3896 14.9756 26.9014C15.7373 26.4131 16.3086 25.7637 16.6895 24.9531C17.0703 24.1328 17.2607 23.2393 17.2607 22.2725C17.2607 21.3057 17.0801 20.3438 16.7188 19.3867C16.3574 18.4199 15.8154 17.541 15.0928 16.75C14.3799 15.9492 13.501 15.3047 12.4561 14.8164C12.3584 14.7773 12.2803 14.7822 12.2217 14.8311C12.1631 14.8799 12.1436 14.9531 12.1631 15.0508C12.29 16.1836 12.2852 17.2432 12.1484 18.2295C12.0117 19.2061 11.7578 19.9727 11.3867 20.5293C11.2109 20.0996 11.0107 19.7041 10.7861 19.3428C10.5713 18.9814 10.2979 18.6494 9.96582 18.3467C9.89746 18.2881 9.8291 18.2734 9.76074 18.3027C9.70215 18.3223 9.66797 18.376 9.6582 18.4639C9.59961 18.9131 9.46289 19.3135 9.24805 19.665C9.04297 20.0166 8.81836 20.3779 8.57422 20.749C8.33008 21.1104 8.11523 21.5156 7.92969 21.9648C7.74414 22.4141 7.65137 22.9561 7.65137 23.5908C7.65137 24.8018 8.06152 25.7783 8.88184 26.5205C9.71191 27.2627 10.8008 27.6338 12.1484 27.6338Z" fill="#087EAE"/>
</svg>
