<svg width="60" height="29" viewBox="0 0 60 29" fill="none" xmlns="http://www.w3.org/2000/svg">
<path d="M4.4707 28.3545H22.752C25.2422 28.3545 26.4873 27.5146 26.4873 25.835C26.4873 24.8389 26.1846 23.7939 25.5791 22.7002C24.9834 21.6064 24.124 20.5859 23.001 19.6387C21.8779 18.6914 20.5205 17.9248 18.9287 17.3389C17.3467 16.7432 15.5791 16.4453 13.626 16.4453C11.6533 16.4453 9.87598 16.7432 8.29395 17.3389C6.71191 17.9248 5.35449 18.6914 4.22168 19.6387C3.09863 20.5859 2.23438 21.6064 1.62891 22.7002C1.0332 23.7939 0.735352 24.8389 0.735352 25.835C0.735352 27.5146 1.98047 28.3545 4.4707 28.3545ZM4.00195 25.8203C3.82617 25.8203 3.69922 25.791 3.62109 25.7324C3.55273 25.6738 3.51855 25.5762 3.51855 25.4395C3.51855 24.8828 3.73828 24.2383 4.17773 23.5059C4.62695 22.7734 5.28125 22.0654 6.14062 21.3818C7 20.6885 8.05469 20.1172 9.30469 19.668C10.5645 19.209 12.0049 18.9795 13.626 18.9795C15.2373 18.9795 16.668 19.209 17.918 19.668C19.168 20.1172 20.2227 20.6885 21.082 21.3818C21.9512 22.0654 22.6055 22.7734 23.0449 23.5059C23.4844 24.2383 23.7041 24.8828 23.7041 25.4395C23.7041 25.5762 23.665 25.6738 23.5869 25.7324C23.5186 25.791 23.4014 25.8203 23.2354 25.8203H4.00195ZM13.626 14.5703C14.7979 14.5703 15.8672 14.2578 16.834 13.6328C17.8105 12.998 18.5869 12.1582 19.1631 11.1133C19.7393 10.0586 20.0273 8.8916 20.0273 7.6123C20.0273 6.35254 19.7393 5.20996 19.1631 4.18457C18.5967 3.15918 17.8252 2.34375 16.8486 1.73828C15.8818 1.12305 14.8076 0.81543 13.626 0.81543C12.4443 0.81543 11.3652 1.12305 10.3887 1.73828C9.42188 2.35352 8.64551 3.17871 8.05957 4.21387C7.4834 5.23926 7.2002 6.37695 7.20996 7.62695C7.20996 8.89648 7.49805 10.0586 8.07422 11.1133C8.65039 12.168 9.42188 13.0078 10.3887 13.6328C11.3652 14.2578 12.4443 14.5703 13.626 14.5703ZM13.626 12.0361C12.9424 12.0361 12.3174 11.8408 11.751 11.4502C11.1846 11.0498 10.7305 10.5176 10.3887 9.85352C10.0469 9.18945 9.87598 8.44727 9.87598 7.62695C9.86621 6.82617 10.0322 6.10352 10.374 5.45898C10.7158 4.81445 11.1699 4.30664 11.7363 3.93555C12.3027 3.55469 12.9326 3.36426 13.626 3.36426C14.2998 3.36426 14.9199 3.5498 15.4863 3.9209C16.0625 4.29199 16.5215 4.7998 16.8633 5.44434C17.2051 6.08887 17.376 6.81152 17.376 7.6123C17.376 8.43262 17.2002 9.17969 16.8486 9.85352C16.5068 10.5176 16.0527 11.0498 15.4863 11.4502C14.9199 11.8408 14.2998 12.0361 13.626 12.0361ZM30.208 16.4453C29.0166 16.4453 27.8887 16.5674 26.8242 16.8115C25.7695 17.0459 24.7881 17.3682 23.8799 17.7783C24.2705 18.0713 24.6367 18.3789 24.9785 18.7012C25.3203 19.0234 25.6377 19.3604 25.9307 19.7119C26.5459 19.4971 27.21 19.3213 27.9229 19.1846C28.6455 19.0479 29.4072 18.9795 30.208 18.9795C31.8193 18.9795 33.25 19.209 34.5 19.668C35.7598 20.1172 36.8193 20.6885 37.6787 21.3818C38.5479 22.0654 39.2021 22.7734 39.6416 23.5059C40.0811 24.2383 40.3008 24.8828 40.3008 25.4395C40.3008 25.5762 40.2617 25.6738 40.1836 25.7324C40.1152 25.791 39.9932 25.8203 39.8174 25.8203H28.4648C28.4746 26.2793 28.4307 26.7188 28.333 27.1387C28.2451 27.5586 28.0645 27.9639 27.791 28.3545H39.334C41.834 28.3545 43.084 27.5146 43.084 25.835C43.084 24.8389 42.7812 23.7939 42.1758 22.7002C41.5801 21.6064 40.7158 20.5859 39.583 19.6387C38.46 18.6914 37.1074 17.9248 35.5254 17.3389C33.9434 16.7432 32.1709 16.4453 30.208 16.4453ZM30.208 14.5703C31.3896 14.5703 32.4639 14.2578 33.4307 13.6328C34.4072 12.998 35.1836 12.1582 35.7598 11.1133C36.3359 10.0586 36.624 8.8916 36.624 7.6123C36.624 6.35254 36.3359 5.20996 35.7598 4.18457C35.1836 3.15918 34.4121 2.34375 33.4453 1.73828C32.4785 1.12305 31.3994 0.81543 30.208 0.81543C29.0361 0.81543 27.9619 1.12305 26.9854 1.73828C26.0186 2.35352 25.2471 3.17871 24.6709 4.21387C24.0947 5.23926 23.8066 6.37695 23.8066 7.62695C23.8066 8.89648 24.0947 10.0586 24.6709 11.1133C25.2471 12.168 26.0186 13.0078 26.9854 13.6328C27.9521 14.2578 29.0264 14.5703 30.208 14.5703ZM30.208 12.0361C29.5342 12.0361 28.9092 11.8408 28.333 11.4502C27.7666 11.0498 27.3125 10.5176 26.9707 9.85352C26.6289 9.18945 26.458 8.44727 26.458 7.62695C26.458 6.82617 26.6289 6.10352 26.9707 5.45898C27.3125 4.81445 27.7666 4.30664 28.333 3.93555C28.9092 3.55469 29.5342 3.36426 30.208 3.36426C30.9014 3.36426 31.5312 3.5498 32.0977 3.9209C32.6641 4.29199 33.1133 4.7998 33.4453 5.44434C33.7871 6.08887 33.958 6.81152 33.958 7.6123C33.958 8.43262 33.7871 9.17969 33.4453 9.85352C33.1133 10.5176 32.6592 11.0498 32.083 11.4502C31.5166 11.8408 30.8916 12.0361 30.208 12.0361ZM46.8047 16.4453C45.6035 16.4453 44.4756 16.5674 43.4209 16.8115C42.3662 17.0459 41.3848 17.3682 40.4766 17.7783C40.8672 18.0811 41.2334 18.3936 41.5752 18.7158C41.9268 19.0381 42.2441 19.3799 42.5273 19.7412C43.1426 19.5068 43.8066 19.3213 44.5195 19.1846C45.2422 19.0479 46.0039 18.9795 46.8047 18.9795C48.4258 18.9795 49.8613 19.209 51.1113 19.668C52.3711 20.1172 53.4258 20.6885 54.2754 21.3818C55.1348 22.0654 55.7891 22.7734 56.2383 23.5059C56.6875 24.2383 56.9121 24.8828 56.9121 25.4395C56.9121 25.5762 56.873 25.6738 56.7949 25.7324C56.7266 25.791 56.6045 25.8203 56.4287 25.8203H45.0615C45.0615 26.2793 45.0127 26.7188 44.915 27.1387C44.8271 27.5586 44.6514 27.9639 44.3877 28.3545H55.9453C58.4453 28.3545 59.6953 27.5146 59.6953 25.835C59.6953 24.8389 59.3926 23.7939 58.7871 22.7002C58.1914 21.6064 57.3271 20.5859 56.1943 19.6387C55.0713 18.6914 53.7188 17.9248 52.1367 17.3389C50.5547 16.7432 48.7773 16.4453 46.8047 16.4453ZM46.8047 14.5703C47.9863 14.5703 49.0605 14.2578 50.0273 13.6328C51.0039 12.998 51.7803 12.1582 52.3564 11.1133C52.9326 10.0586 53.2207 8.8916 53.2207 7.6123C53.2207 6.35254 52.9326 5.20996 52.3564 4.18457C51.7803 3.15918 51.0088 2.34375 50.042 1.73828C49.0752 1.12305 47.9961 0.81543 46.8047 0.81543C45.6328 0.81543 44.5586 1.12305 43.582 1.73828C42.6152 2.35352 41.8438 3.17871 41.2676 4.21387C40.6914 5.23926 40.4033 6.37695 40.4033 7.62695C40.4131 8.89648 40.7012 10.0586 41.2676 11.1133C41.8438 12.168 42.6152 13.0078 43.582 13.6328C44.5586 14.2578 45.6328 14.5703 46.8047 14.5703ZM46.8193 12.0361C46.1455 12.0361 45.5205 11.8408 44.9443 11.4502C44.3779 11.0498 43.9189 10.5176 43.5674 9.85352C43.2256 9.18945 43.0547 8.44727 43.0547 7.62695C43.0547 6.82617 43.2256 6.10352 43.5674 5.45898C43.9189 4.81445 44.3779 4.30664 44.9443 3.93555C45.5107 3.55469 46.1357 3.36426 46.8193 3.36426C47.5029 3.36426 48.1279 3.5498 48.6943 3.9209C49.2705 4.29199 49.7246 4.7998 50.0566 5.44434C50.3984 6.08887 50.5693 6.81152 50.5693 7.6123C50.5693 8.43262 50.3984 9.17969 50.0566 9.85352C49.7148 10.5176 49.2607 11.0498 48.6943 11.4502C48.1279 11.8408 47.5029 12.0361 46.8193 12.0361Z" fill="#E7A600"/>
</svg>
